# xmcd
#
# Track frame offsets:
#	150
#	23912
#	47845
#	73103
#	98248
#	120158
#	146298
#	171948
#	204008
#	226294
#	247555
#	275749
#
# Disc length: 4003 seconds
#
# Revision: 1
# Processed by: cddbd v1.5.2PL0 Copyright (c) Steve Scherf et al.
# Submitted via: audiograbber 1.82.02
#
DISCID=980fa10c
DTITLE=Jack De Keyzer - The Corktown Sessions Live
DYEAR=2009
DGENRE=Blues
TTITLE0=Let's Have a Natural Ball
TTITLE1=Blues Thing
TTITLE2=When You've Got a Good Friend
TTITLE3=King of the Blues
TTITLE4=Signed Sealed Delivered
TTITLE5=I Want to Love You
TTITLE6=The Way That I Love You
TTITLE7=Engine Trouble
TTITLE8=Ride With Me
TTITLE9=Hold On I'm Coming
TTITLE10=Soul Lover
TTITLE11=Rock This House
EXTD=
EXTT0=
EXTT1=
EXTT2=
EXTT3=
EXTT4=
EXTT5=
EXTT6=
EXTT7=
EXTT8=
EXTT9=
EXTT10=
EXTT11=
PLAYORDER=
